<?xml version="1.0" encoding="UTF-8"?>
<svg width="69px" height="69px" viewBox="0 0 69 69" version="1.1" xmlns="http://www.w3.org/2000/svg" xmlns:xlink="http://www.w3.org/1999/xlink">
    <!-- Generator: Sketch 52.4 (67378) - http://www.bohemiancoding.com/sketch -->
    <title>Group 8</title>
    <desc>Created with Sketch.</desc>
    <defs>
        <rect id="path-1" x="9" y="30" width="53" height="12" rx="1.28"></rect>
        <filter x="-3.8%" y="-8.3%" width="107.5%" height="133.3%" filterUnits="objectBoundingBox" id="filter-2">
            <feOffset dx="0" dy="1" in="SourceAlpha" result="shadowOffsetOuter1"></feOffset>
            <feGaussianBlur stdDeviation="0.5" in="shadowOffsetOuter1" result="shadowBlurOuter1"></feGaussianBlur>
            <feColorMatrix values="0 0 0 0 0   0 0 0 0 0   0 0 0 0 0  0 0 0 0.24 0" type="matrix" in="shadowBlurOuter1"></feColorMatrix>
        </filter>
    </defs>
    <g id="Page-1" stroke="none" stroke-width="1" fill="none" fill-rule="evenodd">
        <g id="Creador-ARTICULO-FULL-SCREEN-" transform="translate(-1015.000000, -223.000000)">
            <g id="Group-8" transform="translate(1015.000000, 223.000000)">
                <rect id="Rectangle-3-Copy-18" fill="#EFEFEF" x="0" y="0" width="69" height="69" rx="34.5"></rect>
                <g id="Rectangle-Copy-25">
                    <use fill="black" fill-opacity="1" filter="url(#filter-2)" xlink:href="#path-1"></use>
                    <use fill="#FFFFFF" fill-rule="evenodd" xlink:href="#path-1"></use>
                </g>
                <rect id="Rectangle-Copy-40" fill="#D8D8D8" x="20" y="19" width="24.940407" height="3.41241339" rx="0.64"></rect>
                <rect id="Rectangle-3-Copy-15" fill="#D9D9D9" x="9" y="17" width="7.29622396" height="7.29622396" rx="1.09714286"></rect>
                <path d="M17.66,33.216 L17.66,34.1 L15.92,34.1 L15.92,39 L14.844,39 L14.844,34.1 L13.096,34.1 L13.096,33.216 L17.66,33.216 Z M19.34,34.896 L19.34,39 L18.352,39 L18.352,34.896 L19.34,34.896 Z M20.26,33.152 L19.272,34.196 C19.2213331,34.2493336 19.1726669,34.2859999 19.126,34.306 C19.0793331,34.3260001 19.018667,34.336 18.944,34.336 L18.352,34.336 L18.92,33.364 C18.9600002,33.2946663 19.0066664,33.2420002 19.06,33.206 C19.1133336,33.1699998 19.1933328,33.152 19.3,33.152 L20.26,33.152 Z M21.804,39.064 C21.4493316,39.064 21.176001,38.9633343 20.984,38.762 C20.791999,38.5606657 20.696,38.2826684 20.696,37.928 L20.696,35.636 L20.28,35.636 C20.2266664,35.636 20.1806669,35.6186668 20.142,35.584 C20.1033331,35.5493332 20.084,35.4973337 20.084,35.428 L20.084,35.036 L20.744,34.928 L20.952,33.808 C20.9626667,33.7546664 20.9873331,33.7133335 21.026,33.684 C21.0646669,33.6546665 21.113333,33.64 21.172,33.64 L21.684,33.64 L21.684,34.932 L22.764,34.932 L22.764,35.636 L21.684,35.636 L21.684,37.86 C21.684,37.9880006 21.7159997,38.0879996 21.78,38.16 C21.8440003,38.2320004 21.9293328,38.268 22.036,38.268 C22.0973336,38.268 22.1486665,38.2606667 22.19,38.246 C22.2313335,38.2313333 22.2673332,38.2160001 22.298,38.2 C22.3286668,38.1839999 22.3559999,38.1686667 22.38,38.154 C22.4040001,38.1393333 22.4279999,38.132 22.452,38.132 C22.4813335,38.132 22.5053332,38.1393333 22.524,38.154 C22.5426668,38.1686667 22.5626666,38.1906665 22.584,38.22 L22.88,38.7 C22.7359993,38.8200006 22.5706676,38.9106664 22.384,38.972 C22.1973324,39.0333336 22.004001,39.064 21.804,39.064 Z M24.456,34.896 L24.456,37.504 C24.456,37.7546679 24.5139994,37.948666 24.63,38.086 C24.7460006,38.223334 24.9199988,38.292 25.152,38.292 C25.3226675,38.292 25.4826659,38.2540004 25.632,38.178 C25.7813341,38.1019996 25.922666,37.997334 26.056,37.864 L26.056,34.896 L27.044,34.896 L27.044,39 L26.44,39 C26.3119994,39 26.2280002,38.9400006 26.188,38.82 L26.12,38.492 C26.0346662,38.5773338 25.9466671,38.655333 25.856,38.726 C25.7653329,38.796667 25.6686672,38.8566664 25.566,38.906 C25.4633328,38.9553336 25.3526673,38.9939999 25.234,39.022 C25.1153327,39.0500001 24.9880007,39.064 24.852,39.064 C24.6279989,39.064 24.4300009,39.0260004 24.258,38.95 C24.0859991,38.8739996 23.9413339,38.7666674 23.824,38.628 C23.7066661,38.4893326 23.6180003,38.3246676 23.558,38.134 C23.4979997,37.9433324 23.468,37.7333345 23.468,37.504 L23.468,34.896 L24.456,34.896 Z M29.152,33.056 L29.152,39 L28.164,39 L28.164,33.056 L29.152,33.056 Z M32.02,34.832 C32.3266682,34.832 32.6046654,34.8813328 32.854,34.98 C33.1033346,35.0786672 33.3159991,35.2186658 33.492,35.4 C33.6680009,35.5813342 33.8039995,35.8026654 33.9,36.064 C33.9960005,36.3253346 34.044,36.6173317 34.044,36.94 C34.044,37.265335 33.9960005,37.5586654 33.9,37.82 C33.8039995,38.0813346 33.6680009,38.3039991 33.492,38.488 C33.3159991,38.6720009 33.1033346,38.8133328 32.854,38.912 C32.6046654,39.0106672 32.3266682,39.06 32.02,39.06 C31.7133318,39.06 31.4346679,39.0106672 31.184,38.912 C30.9333321,38.8133328 30.7193342,38.6720009 30.542,38.488 C30.3646658,38.3039991 30.2273338,38.0813346 30.13,37.82 C30.0326662,37.5586654 29.984,37.265335 29.984,36.94 C29.984,36.6173317 30.0326662,36.3253346 30.13,36.064 C30.2273338,35.8026654 30.3646658,35.5813342 30.542,35.4 C30.7193342,35.2186658 30.9333321,35.0786672 31.184,34.98 C31.4346679,34.8813328 31.7133318,34.832 32.02,34.832 Z M32.02,38.3 C32.361335,38.3 32.6139992,38.1853345 32.778,37.956 C32.9420008,37.7266655 33.024,37.3906689 33.024,36.948 C33.024,36.5053311 32.9420008,36.1680012 32.778,35.936 C32.6139992,35.7039988 32.361335,35.588 32.02,35.588 C31.6733316,35.588 31.4173342,35.7046655 31.252,35.938 C31.0866658,36.1713345 31.004,36.5079978 31.004,36.948 C31.004,37.3880022 31.0866658,37.7233322 31.252,37.954 C31.4173342,38.1846678 31.6733316,38.3 32.02,38.3 Z" id="Título" fill="#16C465"></path>
            </g>
        </g>
    </g>
</svg>